<mxfile host="app.diagrams.net" modified="2021-05-14T09:33:39.764Z" agent="5.0 (Windows NT 10.0; WOW64) AppleWebKit/537.36 (KHTML, like Gecko) Chrome/75.0.3770.100 Safari/537.36" etag="CGs_7L2kgiTDm7nSWnYV" version="14.6.13" type="github">
  <diagram id="--AhiXkp_Nq-wdalCf9h" name="Page-1">
    <mxGraphModel dx="1722" dy="345" grid="1" gridSize="10" guides="1" tooltips="1" connect="1" arrows="1" fold="1" page="1" pageScale="1" pageWidth="30" pageHeight="50" math="0" shadow="0">
      <root>
        <mxCell id="0" />
        <mxCell id="1" parent="0" />
        <mxCell id="-H_kmvrpb4XLfZU5FCpM-2" value="" style="group" vertex="1" connectable="0" parent="1">
          <mxGeometry x="-230" y="360" width="1180" height="375" as="geometry" />
        </mxCell>
        <mxCell id="1M6hFRXEZAK05vQW0kg8-1" value="" style="rounded=0;whiteSpace=wrap;html=1;dashed=1;" parent="-H_kmvrpb4XLfZU5FCpM-2" vertex="1">
          <mxGeometry x="145" width="40" height="40" as="geometry" />
        </mxCell>
        <mxCell id="1M6hFRXEZAK05vQW0kg8-2" value="" style="rounded=0;whiteSpace=wrap;html=1;dashed=1;" parent="-H_kmvrpb4XLfZU5FCpM-2" vertex="1">
          <mxGeometry x="185" width="40" height="40" as="geometry" />
        </mxCell>
        <mxCell id="1M6hFRXEZAK05vQW0kg8-3" value="" style="rounded=0;whiteSpace=wrap;html=1;dashed=1;" parent="-H_kmvrpb4XLfZU5FCpM-2" vertex="1">
          <mxGeometry x="225" width="40" height="40" as="geometry" />
        </mxCell>
        <mxCell id="1M6hFRXEZAK05vQW0kg8-4" value="" style="rounded=0;whiteSpace=wrap;html=1;dashed=1;" parent="-H_kmvrpb4XLfZU5FCpM-2" vertex="1">
          <mxGeometry x="265" width="40" height="40" as="geometry" />
        </mxCell>
        <mxCell id="1M6hFRXEZAK05vQW0kg8-5" value="" style="rounded=0;whiteSpace=wrap;html=1;dashed=1;" parent="-H_kmvrpb4XLfZU5FCpM-2" vertex="1">
          <mxGeometry x="305" width="40" height="40" as="geometry" />
        </mxCell>
        <mxCell id="1M6hFRXEZAK05vQW0kg8-6" value="" style="rounded=0;whiteSpace=wrap;html=1;dashed=1;" parent="-H_kmvrpb4XLfZU5FCpM-2" vertex="1">
          <mxGeometry x="345" width="40" height="40" as="geometry" />
        </mxCell>
        <mxCell id="1M6hFRXEZAK05vQW0kg8-88" value="" style="rounded=0;whiteSpace=wrap;html=1;dashed=1;" parent="-H_kmvrpb4XLfZU5FCpM-2" vertex="1">
          <mxGeometry x="145" y="40" width="40" height="40" as="geometry" />
        </mxCell>
        <mxCell id="1M6hFRXEZAK05vQW0kg8-89" value="" style="rounded=0;whiteSpace=wrap;html=1;dashed=1;" parent="-H_kmvrpb4XLfZU5FCpM-2" vertex="1">
          <mxGeometry x="185" y="40" width="40" height="40" as="geometry" />
        </mxCell>
        <mxCell id="1M6hFRXEZAK05vQW0kg8-90" value="" style="rounded=0;whiteSpace=wrap;html=1;dashed=1;" parent="-H_kmvrpb4XLfZU5FCpM-2" vertex="1">
          <mxGeometry x="225" y="40" width="40" height="40" as="geometry" />
        </mxCell>
        <mxCell id="1M6hFRXEZAK05vQW0kg8-91" value="" style="rounded=0;whiteSpace=wrap;html=1;dashed=1;" parent="-H_kmvrpb4XLfZU5FCpM-2" vertex="1">
          <mxGeometry x="265" y="40" width="40" height="40" as="geometry" />
        </mxCell>
        <mxCell id="1M6hFRXEZAK05vQW0kg8-92" value="" style="rounded=0;whiteSpace=wrap;html=1;dashed=1;" parent="-H_kmvrpb4XLfZU5FCpM-2" vertex="1">
          <mxGeometry x="305" y="40" width="40" height="40" as="geometry" />
        </mxCell>
        <mxCell id="1M6hFRXEZAK05vQW0kg8-93" value="" style="rounded=0;whiteSpace=wrap;html=1;dashed=1;" parent="-H_kmvrpb4XLfZU5FCpM-2" vertex="1">
          <mxGeometry x="345" y="40" width="40" height="40" as="geometry" />
        </mxCell>
        <mxCell id="1M6hFRXEZAK05vQW0kg8-94" value="" style="rounded=0;whiteSpace=wrap;html=1;dashed=1;" parent="-H_kmvrpb4XLfZU5FCpM-2" vertex="1">
          <mxGeometry x="145" y="80" width="40" height="40" as="geometry" />
        </mxCell>
        <mxCell id="1M6hFRXEZAK05vQW0kg8-95" value="" style="rounded=0;whiteSpace=wrap;html=1;dashed=1;" parent="-H_kmvrpb4XLfZU5FCpM-2" vertex="1">
          <mxGeometry x="185" y="80" width="40" height="40" as="geometry" />
        </mxCell>
        <mxCell id="1M6hFRXEZAK05vQW0kg8-96" value="" style="rounded=0;whiteSpace=wrap;html=1;dashed=1;" parent="-H_kmvrpb4XLfZU5FCpM-2" vertex="1">
          <mxGeometry x="225" y="80" width="40" height="40" as="geometry" />
        </mxCell>
        <mxCell id="1M6hFRXEZAK05vQW0kg8-97" value="" style="rounded=0;whiteSpace=wrap;html=1;dashed=1;" parent="-H_kmvrpb4XLfZU5FCpM-2" vertex="1">
          <mxGeometry x="265" y="80" width="40" height="40" as="geometry" />
        </mxCell>
        <mxCell id="1M6hFRXEZAK05vQW0kg8-98" value="" style="rounded=0;whiteSpace=wrap;html=1;dashed=1;" parent="-H_kmvrpb4XLfZU5FCpM-2" vertex="1">
          <mxGeometry x="305" y="80" width="40" height="40" as="geometry" />
        </mxCell>
        <mxCell id="1M6hFRXEZAK05vQW0kg8-99" value="" style="rounded=0;whiteSpace=wrap;html=1;dashed=1;" parent="-H_kmvrpb4XLfZU5FCpM-2" vertex="1">
          <mxGeometry x="345" y="80" width="40" height="40" as="geometry" />
        </mxCell>
        <mxCell id="1M6hFRXEZAK05vQW0kg8-100" value="" style="rounded=0;whiteSpace=wrap;html=1;dashed=1;" parent="-H_kmvrpb4XLfZU5FCpM-2" vertex="1">
          <mxGeometry x="145" y="120" width="40" height="40" as="geometry" />
        </mxCell>
        <mxCell id="1M6hFRXEZAK05vQW0kg8-101" value="" style="rounded=0;whiteSpace=wrap;html=1;dashed=1;" parent="-H_kmvrpb4XLfZU5FCpM-2" vertex="1">
          <mxGeometry x="185" y="120" width="40" height="40" as="geometry" />
        </mxCell>
        <mxCell id="1M6hFRXEZAK05vQW0kg8-102" value="" style="rounded=0;whiteSpace=wrap;html=1;dashed=1;" parent="-H_kmvrpb4XLfZU5FCpM-2" vertex="1">
          <mxGeometry x="225" y="120" width="40" height="40" as="geometry" />
        </mxCell>
        <mxCell id="1M6hFRXEZAK05vQW0kg8-103" value="" style="rounded=0;whiteSpace=wrap;html=1;dashed=1;" parent="-H_kmvrpb4XLfZU5FCpM-2" vertex="1">
          <mxGeometry x="265" y="120" width="40" height="40" as="geometry" />
        </mxCell>
        <mxCell id="1M6hFRXEZAK05vQW0kg8-104" value="" style="rounded=0;whiteSpace=wrap;html=1;dashed=1;" parent="-H_kmvrpb4XLfZU5FCpM-2" vertex="1">
          <mxGeometry x="305" y="120" width="40" height="40" as="geometry" />
        </mxCell>
        <mxCell id="1M6hFRXEZAK05vQW0kg8-105" value="" style="rounded=0;whiteSpace=wrap;html=1;dashed=1;" parent="-H_kmvrpb4XLfZU5FCpM-2" vertex="1">
          <mxGeometry x="345" y="120" width="40" height="40" as="geometry" />
        </mxCell>
        <mxCell id="1M6hFRXEZAK05vQW0kg8-106" value="" style="rounded=0;whiteSpace=wrap;html=1;dashed=1;" parent="-H_kmvrpb4XLfZU5FCpM-2" vertex="1">
          <mxGeometry x="145" y="160" width="40" height="40" as="geometry" />
        </mxCell>
        <mxCell id="1M6hFRXEZAK05vQW0kg8-107" value="" style="rounded=0;whiteSpace=wrap;html=1;dashed=1;" parent="-H_kmvrpb4XLfZU5FCpM-2" vertex="1">
          <mxGeometry x="185" y="160" width="40" height="40" as="geometry" />
        </mxCell>
        <mxCell id="1M6hFRXEZAK05vQW0kg8-108" value="" style="rounded=0;whiteSpace=wrap;html=1;dashed=1;" parent="-H_kmvrpb4XLfZU5FCpM-2" vertex="1">
          <mxGeometry x="225" y="160" width="40" height="40" as="geometry" />
        </mxCell>
        <mxCell id="1M6hFRXEZAK05vQW0kg8-109" value="" style="rounded=0;whiteSpace=wrap;html=1;dashed=1;" parent="-H_kmvrpb4XLfZU5FCpM-2" vertex="1">
          <mxGeometry x="265" y="160" width="40" height="40" as="geometry" />
        </mxCell>
        <mxCell id="1M6hFRXEZAK05vQW0kg8-110" value="" style="rounded=0;whiteSpace=wrap;html=1;dashed=1;" parent="-H_kmvrpb4XLfZU5FCpM-2" vertex="1">
          <mxGeometry x="305" y="160" width="40" height="40" as="geometry" />
        </mxCell>
        <mxCell id="1M6hFRXEZAK05vQW0kg8-111" value="" style="rounded=0;whiteSpace=wrap;html=1;dashed=1;" parent="-H_kmvrpb4XLfZU5FCpM-2" vertex="1">
          <mxGeometry x="345" y="160" width="40" height="40" as="geometry" />
        </mxCell>
        <mxCell id="1M6hFRXEZAK05vQW0kg8-119" value="" style="rounded=0;whiteSpace=wrap;html=1;dashed=1;" parent="-H_kmvrpb4XLfZU5FCpM-2" vertex="1">
          <mxGeometry x="145" y="200" width="40" height="40" as="geometry" />
        </mxCell>
        <mxCell id="1M6hFRXEZAK05vQW0kg8-120" value="" style="rounded=0;whiteSpace=wrap;html=1;dashed=1;" parent="-H_kmvrpb4XLfZU5FCpM-2" vertex="1">
          <mxGeometry x="185" y="200" width="40" height="40" as="geometry" />
        </mxCell>
        <mxCell id="1M6hFRXEZAK05vQW0kg8-121" value="" style="rounded=0;whiteSpace=wrap;html=1;dashed=1;" parent="-H_kmvrpb4XLfZU5FCpM-2" vertex="1">
          <mxGeometry x="225" y="200" width="40" height="40" as="geometry" />
        </mxCell>
        <mxCell id="1M6hFRXEZAK05vQW0kg8-122" value="" style="rounded=0;whiteSpace=wrap;html=1;dashed=1;" parent="-H_kmvrpb4XLfZU5FCpM-2" vertex="1">
          <mxGeometry x="265" y="200" width="40" height="40" as="geometry" />
        </mxCell>
        <mxCell id="1M6hFRXEZAK05vQW0kg8-123" value="" style="rounded=0;whiteSpace=wrap;html=1;dashed=1;" parent="-H_kmvrpb4XLfZU5FCpM-2" vertex="1">
          <mxGeometry x="305" y="200" width="40" height="40" as="geometry" />
        </mxCell>
        <mxCell id="1M6hFRXEZAK05vQW0kg8-124" value="" style="rounded=0;whiteSpace=wrap;html=1;dashed=1;" parent="-H_kmvrpb4XLfZU5FCpM-2" vertex="1">
          <mxGeometry x="345" y="200" width="40" height="40" as="geometry" />
        </mxCell>
        <mxCell id="1M6hFRXEZAK05vQW0kg8-125" value="" style="rounded=0;whiteSpace=wrap;html=1;dashed=1;" parent="-H_kmvrpb4XLfZU5FCpM-2" vertex="1">
          <mxGeometry x="385" width="40" height="40" as="geometry" />
        </mxCell>
        <mxCell id="1M6hFRXEZAK05vQW0kg8-126" value="" style="rounded=0;whiteSpace=wrap;html=1;dashed=1;" parent="-H_kmvrpb4XLfZU5FCpM-2" vertex="1">
          <mxGeometry x="385" y="40" width="40" height="40" as="geometry" />
        </mxCell>
        <mxCell id="1M6hFRXEZAK05vQW0kg8-127" value="" style="rounded=0;whiteSpace=wrap;html=1;dashed=1;" parent="-H_kmvrpb4XLfZU5FCpM-2" vertex="1">
          <mxGeometry x="385" y="80" width="40" height="40" as="geometry" />
        </mxCell>
        <mxCell id="1M6hFRXEZAK05vQW0kg8-128" value="" style="rounded=0;whiteSpace=wrap;html=1;dashed=1;" parent="-H_kmvrpb4XLfZU5FCpM-2" vertex="1">
          <mxGeometry x="385" y="120" width="40" height="40" as="geometry" />
        </mxCell>
        <mxCell id="1M6hFRXEZAK05vQW0kg8-129" value="" style="rounded=0;whiteSpace=wrap;html=1;dashed=1;" parent="-H_kmvrpb4XLfZU5FCpM-2" vertex="1">
          <mxGeometry x="385" y="160" width="40" height="40" as="geometry" />
        </mxCell>
        <mxCell id="1M6hFRXEZAK05vQW0kg8-130" value="" style="rounded=0;whiteSpace=wrap;html=1;dashed=1;" parent="-H_kmvrpb4XLfZU5FCpM-2" vertex="1">
          <mxGeometry x="385" y="200" width="40" height="40" as="geometry" />
        </mxCell>
        <mxCell id="1M6hFRXEZAK05vQW0kg8-258" value="" style="rounded=0;whiteSpace=wrap;html=1;strokeColor=#999900;" parent="-H_kmvrpb4XLfZU5FCpM-2" vertex="1">
          <mxGeometry x="85" y="70" width="40" height="40" as="geometry" />
        </mxCell>
        <mxCell id="1M6hFRXEZAK05vQW0kg8-259" value="" style="rounded=0;whiteSpace=wrap;html=1;strokeColor=#999900;" parent="-H_kmvrpb4XLfZU5FCpM-2" vertex="1">
          <mxGeometry x="125" y="70" width="40" height="40" as="geometry" />
        </mxCell>
        <mxCell id="1M6hFRXEZAK05vQW0kg8-260" value="" style="rounded=0;whiteSpace=wrap;html=1;strokeColor=#999900;" parent="-H_kmvrpb4XLfZU5FCpM-2" vertex="1">
          <mxGeometry x="165" y="70" width="40" height="40" as="geometry" />
        </mxCell>
        <mxCell id="1M6hFRXEZAK05vQW0kg8-261" value="" style="rounded=0;whiteSpace=wrap;html=1;strokeColor=#999900;" parent="-H_kmvrpb4XLfZU5FCpM-2" vertex="1">
          <mxGeometry x="205" y="70" width="40" height="40" as="geometry" />
        </mxCell>
        <mxCell id="1M6hFRXEZAK05vQW0kg8-262" value="" style="rounded=0;whiteSpace=wrap;html=1;strokeColor=#999900;" parent="-H_kmvrpb4XLfZU5FCpM-2" vertex="1">
          <mxGeometry x="245" y="70" width="40" height="40" as="geometry" />
        </mxCell>
        <mxCell id="1M6hFRXEZAK05vQW0kg8-263" value="" style="rounded=0;whiteSpace=wrap;html=1;strokeColor=#999900;" parent="-H_kmvrpb4XLfZU5FCpM-2" vertex="1">
          <mxGeometry x="285" y="70" width="40" height="40" as="geometry" />
        </mxCell>
        <mxCell id="1M6hFRXEZAK05vQW0kg8-264" value="" style="rounded=0;whiteSpace=wrap;html=1;strokeColor=#999900;" parent="-H_kmvrpb4XLfZU5FCpM-2" vertex="1">
          <mxGeometry x="85" y="110" width="40" height="40" as="geometry" />
        </mxCell>
        <mxCell id="1M6hFRXEZAK05vQW0kg8-265" value="" style="rounded=0;whiteSpace=wrap;html=1;strokeColor=#999900;" parent="-H_kmvrpb4XLfZU5FCpM-2" vertex="1">
          <mxGeometry x="125" y="110" width="40" height="40" as="geometry" />
        </mxCell>
        <mxCell id="1M6hFRXEZAK05vQW0kg8-266" value="" style="rounded=0;whiteSpace=wrap;html=1;strokeColor=#999900;" parent="-H_kmvrpb4XLfZU5FCpM-2" vertex="1">
          <mxGeometry x="165" y="110" width="40" height="40" as="geometry" />
        </mxCell>
        <mxCell id="1M6hFRXEZAK05vQW0kg8-267" value="" style="rounded=0;whiteSpace=wrap;html=1;strokeColor=#999900;" parent="-H_kmvrpb4XLfZU5FCpM-2" vertex="1">
          <mxGeometry x="205" y="110" width="40" height="40" as="geometry" />
        </mxCell>
        <mxCell id="1M6hFRXEZAK05vQW0kg8-268" value="" style="rounded=0;whiteSpace=wrap;html=1;strokeColor=#999900;" parent="-H_kmvrpb4XLfZU5FCpM-2" vertex="1">
          <mxGeometry x="245" y="110" width="40" height="40" as="geometry" />
        </mxCell>
        <mxCell id="1M6hFRXEZAK05vQW0kg8-269" value="" style="rounded=0;whiteSpace=wrap;html=1;strokeColor=#999900;" parent="-H_kmvrpb4XLfZU5FCpM-2" vertex="1">
          <mxGeometry x="285" y="110" width="40" height="40" as="geometry" />
        </mxCell>
        <mxCell id="1M6hFRXEZAK05vQW0kg8-270" value="" style="rounded=0;whiteSpace=wrap;html=1;" parent="-H_kmvrpb4XLfZU5FCpM-2" vertex="1">
          <mxGeometry x="85" y="150" width="40" height="40" as="geometry" />
        </mxCell>
        <mxCell id="1M6hFRXEZAK05vQW0kg8-271" value="" style="rounded=0;whiteSpace=wrap;html=1;" parent="-H_kmvrpb4XLfZU5FCpM-2" vertex="1">
          <mxGeometry x="125" y="150" width="40" height="40" as="geometry" />
        </mxCell>
        <mxCell id="1M6hFRXEZAK05vQW0kg8-272" value="" style="rounded=0;whiteSpace=wrap;html=1;" parent="-H_kmvrpb4XLfZU5FCpM-2" vertex="1">
          <mxGeometry x="165" y="150" width="40" height="40" as="geometry" />
        </mxCell>
        <mxCell id="1M6hFRXEZAK05vQW0kg8-273" value="" style="rounded=0;whiteSpace=wrap;html=1;" parent="-H_kmvrpb4XLfZU5FCpM-2" vertex="1">
          <mxGeometry x="205" y="150" width="40" height="40" as="geometry" />
        </mxCell>
        <mxCell id="1M6hFRXEZAK05vQW0kg8-274" value="" style="rounded=0;whiteSpace=wrap;html=1;" parent="-H_kmvrpb4XLfZU5FCpM-2" vertex="1">
          <mxGeometry x="245" y="150" width="40" height="40" as="geometry" />
        </mxCell>
        <mxCell id="1M6hFRXEZAK05vQW0kg8-275" value="" style="rounded=0;whiteSpace=wrap;html=1;" parent="-H_kmvrpb4XLfZU5FCpM-2" vertex="1">
          <mxGeometry x="285" y="150" width="40" height="40" as="geometry" />
        </mxCell>
        <mxCell id="1M6hFRXEZAK05vQW0kg8-276" value="" style="rounded=0;whiteSpace=wrap;html=1;strokeColor=#990000;" parent="-H_kmvrpb4XLfZU5FCpM-2" vertex="1">
          <mxGeometry x="85" y="190" width="40" height="40" as="geometry" />
        </mxCell>
        <mxCell id="1M6hFRXEZAK05vQW0kg8-277" value="" style="rounded=0;whiteSpace=wrap;html=1;strokeColor=#990000;" parent="-H_kmvrpb4XLfZU5FCpM-2" vertex="1">
          <mxGeometry x="125" y="190" width="40" height="40" as="geometry" />
        </mxCell>
        <mxCell id="1M6hFRXEZAK05vQW0kg8-278" value="" style="rounded=0;whiteSpace=wrap;html=1;strokeColor=#990000;" parent="-H_kmvrpb4XLfZU5FCpM-2" vertex="1">
          <mxGeometry x="165" y="190" width="40" height="40" as="geometry" />
        </mxCell>
        <mxCell id="1M6hFRXEZAK05vQW0kg8-279" value="" style="rounded=0;whiteSpace=wrap;html=1;strokeColor=#990000;" parent="-H_kmvrpb4XLfZU5FCpM-2" vertex="1">
          <mxGeometry x="205" y="190" width="40" height="40" as="geometry" />
        </mxCell>
        <mxCell id="1M6hFRXEZAK05vQW0kg8-280" value="" style="rounded=0;whiteSpace=wrap;html=1;strokeColor=#990000;" parent="-H_kmvrpb4XLfZU5FCpM-2" vertex="1">
          <mxGeometry x="245" y="190" width="40" height="40" as="geometry" />
        </mxCell>
        <mxCell id="1M6hFRXEZAK05vQW0kg8-281" value="" style="rounded=0;whiteSpace=wrap;html=1;strokeColor=#990000;" parent="-H_kmvrpb4XLfZU5FCpM-2" vertex="1">
          <mxGeometry x="285" y="190" width="40" height="40" as="geometry" />
        </mxCell>
        <mxCell id="1M6hFRXEZAK05vQW0kg8-282" value="" style="rounded=0;whiteSpace=wrap;html=1;strokeColor=#990000;" parent="-H_kmvrpb4XLfZU5FCpM-2" vertex="1">
          <mxGeometry x="85" y="230" width="40" height="40" as="geometry" />
        </mxCell>
        <mxCell id="1M6hFRXEZAK05vQW0kg8-283" value="" style="rounded=0;whiteSpace=wrap;html=1;strokeColor=#990000;" parent="-H_kmvrpb4XLfZU5FCpM-2" vertex="1">
          <mxGeometry x="125" y="230" width="40" height="40" as="geometry" />
        </mxCell>
        <mxCell id="1M6hFRXEZAK05vQW0kg8-284" value="" style="rounded=0;whiteSpace=wrap;html=1;strokeColor=#990000;" parent="-H_kmvrpb4XLfZU5FCpM-2" vertex="1">
          <mxGeometry x="165" y="230" width="40" height="40" as="geometry" />
        </mxCell>
        <mxCell id="1M6hFRXEZAK05vQW0kg8-285" value="" style="rounded=0;whiteSpace=wrap;html=1;strokeColor=#990000;" parent="-H_kmvrpb4XLfZU5FCpM-2" vertex="1">
          <mxGeometry x="205" y="230" width="40" height="40" as="geometry" />
        </mxCell>
        <mxCell id="1M6hFRXEZAK05vQW0kg8-286" value="" style="rounded=0;whiteSpace=wrap;html=1;strokeColor=#990000;" parent="-H_kmvrpb4XLfZU5FCpM-2" vertex="1">
          <mxGeometry x="245" y="230" width="40" height="40" as="geometry" />
        </mxCell>
        <mxCell id="1M6hFRXEZAK05vQW0kg8-287" value="" style="rounded=0;whiteSpace=wrap;html=1;strokeColor=#990000;" parent="-H_kmvrpb4XLfZU5FCpM-2" vertex="1">
          <mxGeometry x="285" y="230" width="40" height="40" as="geometry" />
        </mxCell>
        <mxCell id="1M6hFRXEZAK05vQW0kg8-288" value="" style="rounded=0;whiteSpace=wrap;html=1;strokeColor=#990000;" parent="-H_kmvrpb4XLfZU5FCpM-2" vertex="1">
          <mxGeometry x="85" y="270" width="40" height="40" as="geometry" />
        </mxCell>
        <mxCell id="1M6hFRXEZAK05vQW0kg8-289" value="" style="rounded=0;whiteSpace=wrap;html=1;strokeColor=#990000;" parent="-H_kmvrpb4XLfZU5FCpM-2" vertex="1">
          <mxGeometry x="125" y="270" width="40" height="40" as="geometry" />
        </mxCell>
        <mxCell id="1M6hFRXEZAK05vQW0kg8-290" value="" style="rounded=0;whiteSpace=wrap;html=1;strokeColor=#990000;" parent="-H_kmvrpb4XLfZU5FCpM-2" vertex="1">
          <mxGeometry x="165" y="270" width="40" height="40" as="geometry" />
        </mxCell>
        <mxCell id="1M6hFRXEZAK05vQW0kg8-291" value="" style="rounded=0;whiteSpace=wrap;html=1;strokeColor=#990000;" parent="-H_kmvrpb4XLfZU5FCpM-2" vertex="1">
          <mxGeometry x="205" y="270" width="40" height="40" as="geometry" />
        </mxCell>
        <mxCell id="1M6hFRXEZAK05vQW0kg8-292" value="" style="rounded=0;whiteSpace=wrap;html=1;strokeColor=#990000;" parent="-H_kmvrpb4XLfZU5FCpM-2" vertex="1">
          <mxGeometry x="245" y="270" width="40" height="40" as="geometry" />
        </mxCell>
        <mxCell id="1M6hFRXEZAK05vQW0kg8-293" value="" style="rounded=0;whiteSpace=wrap;html=1;strokeColor=#990000;" parent="-H_kmvrpb4XLfZU5FCpM-2" vertex="1">
          <mxGeometry x="285" y="270" width="40" height="40" as="geometry" />
        </mxCell>
        <mxCell id="1M6hFRXEZAK05vQW0kg8-294" value="" style="rounded=0;whiteSpace=wrap;html=1;strokeColor=#999900;" parent="-H_kmvrpb4XLfZU5FCpM-2" vertex="1">
          <mxGeometry x="325" y="70" width="40" height="40" as="geometry" />
        </mxCell>
        <mxCell id="1M6hFRXEZAK05vQW0kg8-295" value="" style="rounded=0;whiteSpace=wrap;html=1;strokeColor=#999900;" parent="-H_kmvrpb4XLfZU5FCpM-2" vertex="1">
          <mxGeometry x="325" y="110" width="40" height="40" as="geometry" />
        </mxCell>
        <mxCell id="1M6hFRXEZAK05vQW0kg8-296" value="" style="rounded=0;whiteSpace=wrap;html=1;" parent="-H_kmvrpb4XLfZU5FCpM-2" vertex="1">
          <mxGeometry x="325" y="150" width="40" height="40" as="geometry" />
        </mxCell>
        <mxCell id="1M6hFRXEZAK05vQW0kg8-297" value="" style="rounded=0;whiteSpace=wrap;html=1;strokeColor=#990000;" parent="-H_kmvrpb4XLfZU5FCpM-2" vertex="1">
          <mxGeometry x="325" y="190" width="40" height="40" as="geometry" />
        </mxCell>
        <mxCell id="1M6hFRXEZAK05vQW0kg8-298" value="" style="rounded=0;whiteSpace=wrap;html=1;strokeColor=#990000;" parent="-H_kmvrpb4XLfZU5FCpM-2" vertex="1">
          <mxGeometry x="325" y="230" width="40" height="40" as="geometry" />
        </mxCell>
        <mxCell id="1M6hFRXEZAK05vQW0kg8-299" value="" style="rounded=0;whiteSpace=wrap;html=1;strokeColor=#990000;" parent="-H_kmvrpb4XLfZU5FCpM-2" vertex="1">
          <mxGeometry x="325" y="270" width="40" height="40" as="geometry" />
        </mxCell>
        <mxCell id="1M6hFRXEZAK05vQW0kg8-300" value="" style="rounded=0;whiteSpace=wrap;html=1;" parent="-H_kmvrpb4XLfZU5FCpM-2" vertex="1">
          <mxGeometry x="665" y="95" width="40" height="40" as="geometry" />
        </mxCell>
        <mxCell id="1M6hFRXEZAK05vQW0kg8-301" value="" style="rounded=0;whiteSpace=wrap;html=1;" parent="-H_kmvrpb4XLfZU5FCpM-2" vertex="1">
          <mxGeometry x="665" y="135" width="40" height="40" as="geometry" />
        </mxCell>
        <mxCell id="1M6hFRXEZAK05vQW0kg8-302" value="" style="rounded=0;whiteSpace=wrap;html=1;fillColor=#990000;" parent="-H_kmvrpb4XLfZU5FCpM-2" vertex="1">
          <mxGeometry x="665" y="175" width="40" height="40" as="geometry" />
        </mxCell>
        <mxCell id="1M6hFRXEZAK05vQW0kg8-303" value="" style="rounded=0;whiteSpace=wrap;html=1;" parent="-H_kmvrpb4XLfZU5FCpM-2" vertex="1">
          <mxGeometry x="665" y="215" width="40" height="40" as="geometry" />
        </mxCell>
        <mxCell id="1M6hFRXEZAK05vQW0kg8-304" value="" style="rounded=0;whiteSpace=wrap;html=1;" parent="-H_kmvrpb4XLfZU5FCpM-2" vertex="1">
          <mxGeometry x="665" y="255" width="40" height="40" as="geometry" />
        </mxCell>
        <mxCell id="1M6hFRXEZAK05vQW0kg8-305" value="" style="rounded=0;whiteSpace=wrap;html=1;" parent="-H_kmvrpb4XLfZU5FCpM-2" vertex="1">
          <mxGeometry x="665" y="295" width="40" height="40" as="geometry" />
        </mxCell>
        <mxCell id="1M6hFRXEZAK05vQW0kg8-306" value="" style="rounded=0;whiteSpace=wrap;html=1;dashed=1;" parent="-H_kmvrpb4XLfZU5FCpM-2" vertex="1">
          <mxGeometry x="645" y="75" width="40" height="40" as="geometry" />
        </mxCell>
        <mxCell id="1M6hFRXEZAK05vQW0kg8-307" value="" style="rounded=0;whiteSpace=wrap;html=1;dashed=1;" parent="-H_kmvrpb4XLfZU5FCpM-2" vertex="1">
          <mxGeometry x="645" y="115" width="40" height="40" as="geometry" />
        </mxCell>
        <mxCell id="1M6hFRXEZAK05vQW0kg8-308" value="" style="rounded=0;whiteSpace=wrap;html=1;dashed=1;" parent="-H_kmvrpb4XLfZU5FCpM-2" vertex="1">
          <mxGeometry x="645" y="155" width="40" height="40" as="geometry" />
        </mxCell>
        <mxCell id="1M6hFRXEZAK05vQW0kg8-309" value="" style="rounded=0;whiteSpace=wrap;html=1;dashed=1;" parent="-H_kmvrpb4XLfZU5FCpM-2" vertex="1">
          <mxGeometry x="645" y="195" width="40" height="40" as="geometry" />
        </mxCell>
        <mxCell id="1M6hFRXEZAK05vQW0kg8-310" value="" style="rounded=0;whiteSpace=wrap;html=1;dashed=1;" parent="-H_kmvrpb4XLfZU5FCpM-2" vertex="1">
          <mxGeometry x="645" y="235" width="40" height="40" as="geometry" />
        </mxCell>
        <mxCell id="1M6hFRXEZAK05vQW0kg8-311" value="" style="rounded=0;whiteSpace=wrap;html=1;dashed=1;" parent="-H_kmvrpb4XLfZU5FCpM-2" vertex="1">
          <mxGeometry x="645" y="275" width="40" height="40" as="geometry" />
        </mxCell>
        <mxCell id="1M6hFRXEZAK05vQW0kg8-312" value="" style="rounded=0;whiteSpace=wrap;html=1;dashed=1;" parent="-H_kmvrpb4XLfZU5FCpM-2" vertex="1">
          <mxGeometry x="625" y="25" width="40" height="40" as="geometry" />
        </mxCell>
        <mxCell id="1M6hFRXEZAK05vQW0kg8-313" value="" style="rounded=0;whiteSpace=wrap;html=1;dashed=1;" parent="-H_kmvrpb4XLfZU5FCpM-2" vertex="1">
          <mxGeometry x="625" y="65" width="40" height="40" as="geometry" />
        </mxCell>
        <mxCell id="1M6hFRXEZAK05vQW0kg8-314" value="" style="rounded=0;whiteSpace=wrap;html=1;dashed=1;" parent="-H_kmvrpb4XLfZU5FCpM-2" vertex="1">
          <mxGeometry x="625" y="105" width="40" height="40" as="geometry" />
        </mxCell>
        <mxCell id="1M6hFRXEZAK05vQW0kg8-315" value="" style="rounded=0;whiteSpace=wrap;html=1;dashed=1;" parent="-H_kmvrpb4XLfZU5FCpM-2" vertex="1">
          <mxGeometry x="625" y="145" width="40" height="40" as="geometry" />
        </mxCell>
        <mxCell id="1M6hFRXEZAK05vQW0kg8-316" value="" style="rounded=0;whiteSpace=wrap;html=1;dashed=1;" parent="-H_kmvrpb4XLfZU5FCpM-2" vertex="1">
          <mxGeometry x="625" y="185" width="40" height="40" as="geometry" />
        </mxCell>
        <mxCell id="1M6hFRXEZAK05vQW0kg8-317" value="" style="rounded=0;whiteSpace=wrap;html=1;dashed=1;" parent="-H_kmvrpb4XLfZU5FCpM-2" vertex="1">
          <mxGeometry x="625" y="225" width="40" height="40" as="geometry" />
        </mxCell>
        <mxCell id="1M6hFRXEZAK05vQW0kg8-318" value="" style="rounded=0;whiteSpace=wrap;html=1;fillColor=#999900;" parent="-H_kmvrpb4XLfZU5FCpM-2" vertex="1">
          <mxGeometry x="609" y="5" width="40" height="40" as="geometry" />
        </mxCell>
        <mxCell id="1M6hFRXEZAK05vQW0kg8-319" value="" style="rounded=0;whiteSpace=wrap;html=1;" parent="-H_kmvrpb4XLfZU5FCpM-2" vertex="1">
          <mxGeometry x="609" y="45" width="40" height="40" as="geometry" />
        </mxCell>
        <mxCell id="1M6hFRXEZAK05vQW0kg8-320" value="" style="rounded=0;whiteSpace=wrap;html=1;fillColor=#FFFFFF;" parent="-H_kmvrpb4XLfZU5FCpM-2" vertex="1">
          <mxGeometry x="609" y="85" width="40" height="40" as="geometry" />
        </mxCell>
        <mxCell id="1M6hFRXEZAK05vQW0kg8-321" value="" style="rounded=0;whiteSpace=wrap;html=1;" parent="-H_kmvrpb4XLfZU5FCpM-2" vertex="1">
          <mxGeometry x="609" y="125" width="40" height="40" as="geometry" />
        </mxCell>
        <mxCell id="1M6hFRXEZAK05vQW0kg8-322" value="" style="rounded=0;whiteSpace=wrap;html=1;" parent="-H_kmvrpb4XLfZU5FCpM-2" vertex="1">
          <mxGeometry x="609" y="165" width="40" height="40" as="geometry" />
        </mxCell>
        <mxCell id="1M6hFRXEZAK05vQW0kg8-323" value="" style="rounded=0;whiteSpace=wrap;html=1;" parent="-H_kmvrpb4XLfZU5FCpM-2" vertex="1">
          <mxGeometry x="609" y="205" width="40" height="40" as="geometry" />
        </mxCell>
        <mxCell id="1M6hFRXEZAK05vQW0kg8-329" value="" style="rounded=0;whiteSpace=wrap;html=1;strokeColor=#000000;" parent="-H_kmvrpb4XLfZU5FCpM-2" vertex="1">
          <mxGeometry x="805" y="65" width="40" height="40" as="geometry" />
        </mxCell>
        <mxCell id="1M6hFRXEZAK05vQW0kg8-330" value="" style="rounded=0;whiteSpace=wrap;html=1;strokeColor=#000000;" parent="-H_kmvrpb4XLfZU5FCpM-2" vertex="1">
          <mxGeometry x="805" y="105" width="40" height="40" as="geometry" />
        </mxCell>
        <mxCell id="1M6hFRXEZAK05vQW0kg8-331" value="" style="rounded=0;whiteSpace=wrap;html=1;strokeColor=#000000;" parent="-H_kmvrpb4XLfZU5FCpM-2" vertex="1">
          <mxGeometry x="805" y="145" width="40" height="40" as="geometry" />
        </mxCell>
        <mxCell id="1M6hFRXEZAK05vQW0kg8-332" value="" style="rounded=0;whiteSpace=wrap;html=1;strokeColor=#000000;" parent="-H_kmvrpb4XLfZU5FCpM-2" vertex="1">
          <mxGeometry x="805" y="185" width="40" height="40" as="geometry" />
        </mxCell>
        <mxCell id="1M6hFRXEZAK05vQW0kg8-333" value="" style="rounded=0;whiteSpace=wrap;html=1;strokeColor=#000000;" parent="-H_kmvrpb4XLfZU5FCpM-2" vertex="1">
          <mxGeometry x="975" y="115" width="40" height="40" as="geometry" />
        </mxCell>
        <mxCell id="1M6hFRXEZAK05vQW0kg8-334" value="" style="rounded=0;whiteSpace=wrap;html=1;strokeColor=#000000;" parent="-H_kmvrpb4XLfZU5FCpM-2" vertex="1">
          <mxGeometry x="975" y="155" width="40" height="40" as="geometry" />
        </mxCell>
        <mxCell id="1M6hFRXEZAK05vQW0kg8-335" value="" style="endArrow=none;html=1;exitX=1;exitY=0;exitDx=0;exitDy=0;entryX=0;entryY=0;entryDx=0;entryDy=0;dashed=1;strokeColor=#999900;" parent="-H_kmvrpb4XLfZU5FCpM-2" source="1M6hFRXEZAK05vQW0kg8-318" target="1M6hFRXEZAK05vQW0kg8-329" edge="1">
          <mxGeometry width="50" height="50" as="geometry">
            <mxPoint x="691" y="-40" as="sourcePoint" />
            <mxPoint x="935" y="-115" as="targetPoint" />
          </mxGeometry>
        </mxCell>
        <mxCell id="1M6hFRXEZAK05vQW0kg8-337" value="" style="endArrow=none;html=1;exitX=1;exitY=1;exitDx=0;exitDy=0;entryX=0;entryY=1;entryDx=0;entryDy=0;dashed=1;strokeColor=#999900;" parent="-H_kmvrpb4XLfZU5FCpM-2" source="1M6hFRXEZAK05vQW0kg8-323" target="1M6hFRXEZAK05vQW0kg8-329" edge="1">
          <mxGeometry width="50" height="50" as="geometry">
            <mxPoint x="659" y="15" as="sourcePoint" />
            <mxPoint x="815" y="75" as="targetPoint" />
          </mxGeometry>
        </mxCell>
        <mxCell id="1M6hFRXEZAK05vQW0kg8-338" value="" style="endArrow=none;html=1;exitX=1;exitY=0;exitDx=0;exitDy=0;entryX=0;entryY=1;entryDx=0;entryDy=0;strokeColor=#990000;dashed=1;" parent="-H_kmvrpb4XLfZU5FCpM-2" source="1M6hFRXEZAK05vQW0kg8-300" target="1M6hFRXEZAK05vQW0kg8-331" edge="1">
          <mxGeometry width="50" height="50" as="geometry">
            <mxPoint x="669" y="25" as="sourcePoint" />
            <mxPoint x="825" y="85" as="targetPoint" />
          </mxGeometry>
        </mxCell>
        <mxCell id="1M6hFRXEZAK05vQW0kg8-339" value="" style="endArrow=none;html=1;exitX=1;exitY=1;exitDx=0;exitDy=0;entryX=0;entryY=1;entryDx=0;entryDy=0;dashed=1;strokeColor=#990000;" parent="-H_kmvrpb4XLfZU5FCpM-2" source="1M6hFRXEZAK05vQW0kg8-305" target="1M6hFRXEZAK05vQW0kg8-332" edge="1">
          <mxGeometry width="50" height="50" as="geometry">
            <mxPoint x="659" y="255" as="sourcePoint" />
            <mxPoint x="815" y="115" as="targetPoint" />
          </mxGeometry>
        </mxCell>
        <mxCell id="1M6hFRXEZAK05vQW0kg8-349" value="" style="endArrow=none;html=1;exitX=1;exitY=0;exitDx=0;exitDy=0;entryX=0;entryY=0;entryDx=0;entryDy=0;dashed=1;strokeColor=#999900;" parent="-H_kmvrpb4XLfZU5FCpM-2" source="1M6hFRXEZAK05vQW0kg8-294" target="1M6hFRXEZAK05vQW0kg8-318" edge="1">
          <mxGeometry width="50" height="50" as="geometry">
            <mxPoint x="374.5" y="160" as="sourcePoint" />
            <mxPoint x="618.5" y="55" as="targetPoint" />
          </mxGeometry>
        </mxCell>
        <mxCell id="1M6hFRXEZAK05vQW0kg8-350" value="" style="endArrow=none;html=1;exitX=1;exitY=1;exitDx=0;exitDy=0;entryX=0;entryY=1;entryDx=0;entryDy=0;dashed=1;strokeColor=#999900;" parent="-H_kmvrpb4XLfZU5FCpM-2" source="1M6hFRXEZAK05vQW0kg8-295" target="1M6hFRXEZAK05vQW0kg8-318" edge="1">
          <mxGeometry width="50" height="50" as="geometry">
            <mxPoint x="375" y="80" as="sourcePoint" />
            <mxPoint x="619" y="15" as="targetPoint" />
          </mxGeometry>
        </mxCell>
        <mxCell id="1M6hFRXEZAK05vQW0kg8-351" value="" style="endArrow=none;html=1;dashed=1;strokeColor=#990000;exitX=1;exitY=0;exitDx=0;exitDy=0;entryX=1;entryY=0;entryDx=0;entryDy=0;" parent="-H_kmvrpb4XLfZU5FCpM-2" source="1M6hFRXEZAK05vQW0kg8-297" target="1M6hFRXEZAK05vQW0kg8-302" edge="1">
          <mxGeometry width="50" height="50" as="geometry">
            <mxPoint x="585" y="165" as="sourcePoint" />
            <mxPoint x="635" y="115" as="targetPoint" />
          </mxGeometry>
        </mxCell>
        <mxCell id="1M6hFRXEZAK05vQW0kg8-352" value="" style="endArrow=none;html=1;dashed=1;strokeColor=#990000;exitX=1;exitY=1;exitDx=0;exitDy=0;entryX=1;entryY=0;entryDx=0;entryDy=0;" parent="-H_kmvrpb4XLfZU5FCpM-2" source="1M6hFRXEZAK05vQW0kg8-299" target="1M6hFRXEZAK05vQW0kg8-303" edge="1">
          <mxGeometry width="50" height="50" as="geometry">
            <mxPoint x="375" y="200" as="sourcePoint" />
            <mxPoint x="715" y="185" as="targetPoint" />
          </mxGeometry>
        </mxCell>
        <mxCell id="1M6hFRXEZAK05vQW0kg8-353" value="" style="endArrow=none;html=1;dashed=1;entryX=0;entryY=0;entryDx=0;entryDy=0;exitX=1;exitY=0;exitDx=0;exitDy=0;" parent="-H_kmvrpb4XLfZU5FCpM-2" source="1M6hFRXEZAK05vQW0kg8-329" target="1M6hFRXEZAK05vQW0kg8-333" edge="1">
          <mxGeometry width="50" height="50" as="geometry">
            <mxPoint x="865" y="35" as="sourcePoint" />
            <mxPoint x="915" y="-15" as="targetPoint" />
          </mxGeometry>
        </mxCell>
        <mxCell id="1M6hFRXEZAK05vQW0kg8-354" value="" style="endArrow=none;html=1;dashed=1;entryX=0;entryY=1;entryDx=0;entryDy=0;exitX=1;exitY=1;exitDx=0;exitDy=0;" parent="-H_kmvrpb4XLfZU5FCpM-2" source="1M6hFRXEZAK05vQW0kg8-332" target="1M6hFRXEZAK05vQW0kg8-334" edge="1">
          <mxGeometry width="50" height="50" as="geometry">
            <mxPoint x="885" y="315" as="sourcePoint" />
            <mxPoint x="935" y="265" as="targetPoint" />
          </mxGeometry>
        </mxCell>
        <mxCell id="1M6hFRXEZAK05vQW0kg8-355" value="&lt;font style=&quot;font-size: 20px&quot;&gt;I&lt;/font&gt;" style="text;html=1;align=center;verticalAlign=middle;resizable=0;points=[];autosize=1;strokeWidth=4;perimeterSpacing=2;" parent="-H_kmvrpb4XLfZU5FCpM-2" vertex="1">
          <mxGeometry x="55" y="75" width="20" height="20" as="geometry" />
        </mxCell>
        <mxCell id="1M6hFRXEZAK05vQW0kg8-356" value="&lt;font style=&quot;font-size: 26px;&quot;&gt;want&lt;/font&gt;" style="text;html=1;align=center;verticalAlign=middle;resizable=0;points=[];autosize=1;strokeWidth=4;perimeterSpacing=2;fontSize=26;" parent="-H_kmvrpb4XLfZU5FCpM-2" vertex="1">
          <mxGeometry x="10" y="105" width="70" height="40" as="geometry" />
        </mxCell>
        <mxCell id="1M6hFRXEZAK05vQW0kg8-357" value="&lt;font style=&quot;font-size: 26px;&quot;&gt;to&lt;/font&gt;" style="text;html=1;align=center;verticalAlign=middle;resizable=0;points=[];autosize=1;strokeWidth=4;perimeterSpacing=2;fontSize=26;" parent="-H_kmvrpb4XLfZU5FCpM-2" vertex="1">
          <mxGeometry x="40" y="155" width="40" height="40" as="geometry" />
        </mxCell>
        <mxCell id="1M6hFRXEZAK05vQW0kg8-358" value="&lt;font style=&quot;font-size: 26px;&quot;&gt;play&lt;/font&gt;" style="text;html=1;align=center;verticalAlign=middle;resizable=0;points=[];autosize=1;strokeWidth=4;perimeterSpacing=2;fontSize=26;" parent="-H_kmvrpb4XLfZU5FCpM-2" vertex="1">
          <mxGeometry x="20" y="190" width="60" height="40" as="geometry" />
        </mxCell>
        <mxCell id="1M6hFRXEZAK05vQW0kg8-360" value="&lt;font style=&quot;font-size: 26px;&quot;&gt;today&lt;/font&gt;" style="text;html=1;align=center;verticalAlign=middle;resizable=0;points=[];autosize=1;strokeWidth=4;perimeterSpacing=2;fontSize=26;" parent="-H_kmvrpb4XLfZU5FCpM-2" vertex="1">
          <mxGeometry y="270" width="80" height="40" as="geometry" />
        </mxCell>
        <mxCell id="1M6hFRXEZAK05vQW0kg8-359" value="&lt;font style=&quot;font-size: 26px;&quot;&gt;basketball&lt;/font&gt;" style="text;html=1;align=center;verticalAlign=middle;resizable=0;points=[];autosize=1;strokeWidth=4;perimeterSpacing=2;fontSize=26;" parent="-H_kmvrpb4XLfZU5FCpM-2" vertex="1">
          <mxGeometry x="-50" y="235" width="130" height="40" as="geometry" />
        </mxCell>
        <mxCell id="1M6hFRXEZAK05vQW0kg8-363" value="&lt;font style=&quot;font-size: 26px;&quot;&gt;n×k representation of sentence&lt;/font&gt;" style="text;html=1;align=center;verticalAlign=middle;resizable=0;points=[];autosize=1;fontSize=26;" parent="-H_kmvrpb4XLfZU5FCpM-2" vertex="1">
          <mxGeometry x="20" y="335" width="370" height="40" as="geometry" />
        </mxCell>
        <mxCell id="1M6hFRXEZAK05vQW0kg8-364" value="&lt;font style=&quot;font-size: 26px;&quot;&gt;Convolutional Layer&amp;nbsp;&lt;/font&gt;" style="text;html=1;align=center;verticalAlign=middle;resizable=0;points=[];autosize=1;fontSize=26;" parent="-H_kmvrpb4XLfZU5FCpM-2" vertex="1">
          <mxGeometry x="490" y="335" width="250" height="40" as="geometry" />
        </mxCell>
        <mxCell id="1M6hFRXEZAK05vQW0kg8-365" value="&lt;font style=&quot;font-size: 26px;&quot;&gt;Pooling Layer&lt;/font&gt;" style="text;html=1;align=center;verticalAlign=middle;resizable=0;points=[];autosize=1;fontSize=26;" parent="-H_kmvrpb4XLfZU5FCpM-2" vertex="1">
          <mxGeometry x="750" y="335" width="170" height="40" as="geometry" />
        </mxCell>
        <mxCell id="1M6hFRXEZAK05vQW0kg8-366" value="&lt;font style=&quot;font-size: 26px;&quot;&gt;Fully Connected Layer&lt;/font&gt;" style="text;html=1;align=center;verticalAlign=middle;resizable=0;points=[];autosize=1;fontSize=26;" parent="-H_kmvrpb4XLfZU5FCpM-2" vertex="1">
          <mxGeometry x="930" y="335" width="280" height="40" as="geometry" />
        </mxCell>
        <mxCell id="-H_kmvrpb4XLfZU5FCpM-3" value="&lt;font style=&quot;font-size: 26px;&quot;&gt;I&lt;/font&gt;" style="text;html=1;align=center;verticalAlign=middle;resizable=0;points=[];autosize=1;strokeWidth=4;perimeterSpacing=2;fontSize=26;" vertex="1" parent="-H_kmvrpb4XLfZU5FCpM-2">
          <mxGeometry x="55" y="65" width="20" height="40" as="geometry" />
        </mxCell>
      </root>
    </mxGraphModel>
  </diagram>
</mxfile>
